<svg width="1200" height="720" viewBox="0 0 1200 720" fill="none" xmlns="http://www.w3.org/2000/svg">
  <rect width="1200" height="720" rx="18" fill="#DCD5C9"/>
  <rect x="24" y="22" width="1152" height="676" fill="#F3EFE6" stroke="#BFB6A7"/>
  <rect x="24" y="22" width="246" height="676" fill="#20231F"/>
  <g transform="translate(52 51)">
    <rect width="34" height="39" fill="#EEE8DC"/><rect width="9" height="39" fill="#D4CCBE"/><path d="M9 0V39M16 13H28M16 20H26M16 27H24" stroke="#20231F" stroke-width="1.8"/><circle cx="9" cy="13" r="2.4" fill="#C64F37"/><circle cx="9" cy="27" r="2.4" fill="#C64F37"/>
    <text x="47" y="25" fill="#F4EEE3" font-family="Georgia, serif" font-size="21" font-weight="600">Worklog</text><text x="48" y="39" fill="#81887E" font-family="Menlo, monospace" font-size="6" letter-spacing="1">个人工作档案</text>
  </g>
  <g font-family="-apple-system, BlinkMacSystemFont, Segoe UI, sans-serif" font-size="10">
    <rect x="42" y="132" width="210" height="42" fill="#2C302A"/><rect x="42" y="132" width="3" height="42" fill="#C64F37"/><text x="62" y="158" fill="#F7F1E7">01　今日现场</text>
    <text x="62" y="205" fill="#A2A9A0">02　日报校正</text><text x="62" y="247" fill="#A2A9A0">03　工作档案</text><text x="62" y="289" fill="#A2A9A0">04　采集来源</text><text x="62" y="331" fill="#A2A9A0">05　系统设置</text>
  </g>
  <line x1="45" y1="558" x2="249" y2="558" stroke="#3B4038"/><circle cx="53" cy="583" r="4" fill="#89A17B"/><text x="66" y="587" fill="#E9E3D8" font-family="-apple-system, sans-serif" font-size="9" font-weight="600">配置完整，后台正在运行</text><text x="66" y="604" fill="#7F867D" font-family="-apple-system, sans-serif" font-size="7">08:30 续接 · 18:00 日报</text>
  <rect x="44" y="626" width="207" height="40" fill="#C64F37"/><text x="79" y="651" fill="white" font-family="-apple-system, sans-serif" font-size="9" font-weight="700">生成并发布今日档案</text>

  <g transform="translate(306 58)">
    <text x="0" y="12" fill="#A14230" font-family="Menlo, monospace" font-size="7" letter-spacing="1.2">TODAY'S FIELD NOTES · JUL 30, 2026</text>
    <text x="0" y="59" fill="#20231F" font-family="Georgia, serif" font-size="39" font-weight="600">今天的工作现场</text>
    <text x="0" y="84" fill="#6F746C" font-family="-apple-system, sans-serif" font-size="10">先看项目如何推进，再把零散证据整理成一份可信、可继续的工作档案。</text>
    <rect x="779" y="0" width="65" height="76" fill="#FBF9F3" stroke="#BCB3A4"/><text x="796" y="34" fill="#20231F" font-family="Georgia, serif" font-size="27" font-weight="600">30</text><text x="793" y="49" fill="#A14230" font-family="Menlo, monospace" font-size="6" font-weight="700">JUL 2026</text><text x="796" y="63" fill="#777B72" font-family="-apple-system, sans-serif" font-size="7">星期四</text>
    <line x1="0" y1="106" x2="844" y2="106" stroke="#D8D1C4"/>

    <g transform="translate(0 129)">
      <rect width="844" height="79" fill="#FBF9F3" stroke="#D8D1C4"/>
      <line x1="211" y1="0" x2="211" y2="79" stroke="#D8D1C4"/><line x1="422" y1="0" x2="422" y2="79" stroke="#D8D1C4"/><line x1="633" y1="0" x2="633" y2="79" stroke="#D8D1C4"/>
      <g fill="#777B72" font-family="-apple-system, sans-serif" font-size="8"><text x="20" y="22">有效证据</text><text x="231" y="22">活跃项目</text><text x="442" y="22">可确认产物</text><text x="653" y="22">日报状态</text></g>
      <g fill="#20231F" font-family="Georgia, serif" font-size="26" font-weight="600"><text x="20" y="53">128</text><text x="231" y="53">4</text><text x="442" y="53">11</text><text x="653" y="53">草稿 v2</text></g>
      <g fill="#999B92" font-family="-apple-system, sans-serif" font-size="7"><text x="20" y="68">已过滤工作素材</text><text x="231" y="68">按上下文自动归类</text><text x="442" y="68">提交、文档与决策</text><text x="653" y="68">18:00 自动整理</text></g>
    </g>

    <g transform="translate(0 232)">
      <rect width="844" height="130" fill="#FBF9F3" stroke="#D8D1C4"/>
      <rect x="20" y="20" width="27" height="27" fill="#F3EFE6" stroke="#BCB3A4"/><text x="29" y="38" fill="#A14230" font-family="Menlo, monospace" font-size="9" font-weight="700">A</text>
      <text x="62" y="28" fill="#A14230" font-family="Menlo, monospace" font-size="6" letter-spacing="1">08:30 · CONTINUE</text><text x="62" y="49" fill="#20231F" font-family="Georgia, serif" font-size="17" font-weight="600">晨间续接</text><text x="62" y="65" fill="#777B72" font-family="-apple-system, sans-serif" font-size="7">从昨天停下的地方继续，不必重新翻找上下文。</text>
      <line x1="20" y1="83" x2="824" y2="83" stroke="#D8D1C4"/><text x="30" y="107" fill="#4F554E" font-family="-apple-system, sans-serif" font-size="8">继续完成桌面端发布体验：先验证新图标与安装向导，再处理公开文档中的跨平台说明。</text>
    </g>

    <g transform="translate(0 383)">
      <rect width="844" height="225" fill="#FBF9F3" stroke="#D8D1C4"/>
      <rect x="20" y="20" width="27" height="27" fill="#F3EFE6" stroke="#BCB3A4"/><text x="29" y="38" fill="#A14230" font-family="Menlo, monospace" font-size="9" font-weight="700">B</text>
      <text x="62" y="28" fill="#A14230" font-family="Menlo, monospace" font-size="6" letter-spacing="1">TODAY · WORK GRAPH</text><text x="62" y="49" fill="#20231F" font-family="Georgia, serif" font-size="17" font-weight="600">项目与产出链</text><text x="755" y="42" fill="#A14230" font-family="-apple-system, sans-serif" font-size="8">刷新图谱</text>
      <line x1="20" y1="78" x2="824" y2="78" stroke="#D8D1C4"/>
      <text x="20" y="105" fill="#20231F" font-family="Georgia, serif" font-size="14" font-weight="600">Worklog · 桌面发布体验</text><text x="706" y="104" fill="#777B72" font-family="Menlo, monospace" font-size="7">47 条证据 · 6 个产物</text>
      <rect x="20" y="121" width="388" height="79" fill="#FFFDF8" stroke="#D8D1C4"/><rect x="20" y="121" width="3" height="79" fill="#C64F37"/><text x="36" y="143" fill="#20231F" font-family="-apple-system, sans-serif" font-size="9" font-weight="600">重构首次启动与桌面视觉</text><rect x="330" y="135" width="61" height="17" fill="#E5EADF" stroke="#B9C5B1"/><text x="341" y="147" fill="#526644" font-family="Menlo, monospace" font-size="6">高可信 91%</text><text x="36" y="166" fill="#777B72" font-family="Menlo, monospace" font-size="7">意图  →  8 个执行节点  →  构建</text><text x="36" y="186" fill="#4F554E" font-family="-apple-system, sans-serif" font-size="7">完成管理台、初始化向导与品牌资产的统一重构。</text>
      <rect x="424" y="121" width="400" height="79" fill="#FFFDF8" stroke="#D8D1C4"/><rect x="424" y="121" width="3" height="79" fill="#829677"/><text x="440" y="143" fill="#20231F" font-family="-apple-system, sans-serif" font-size="9" font-weight="600">验证跨平台安装包</text><rect x="746" y="135" width="61" height="17" fill="#E5EADF" stroke="#B9C5B1"/><text x="757" y="147" fill="#526644" font-family="Menlo, monospace" font-size="6">高可信 88%</text><text x="440" y="166" fill="#777B72" font-family="Menlo, monospace" font-size="7">意图  →  5 个执行节点  →  发布</text><text x="440" y="186" fill="#4F554E" font-family="-apple-system, sans-serif" font-size="7">macOS、Windows 与 Linux 构建检查全部通过。</text>
    </g>
  </g>
</svg>
